<?xml version="1.0" encoding="utf-8"?>
<svg viewBox="0 0 40 55" xmlns="http://www.w3.org/2000/svg">
  <path style="fill: rgb(216, 216, 216); stroke: rgb(0, 0, 0); stroke-dashoffset: 1px; stroke-width: 0px;" d="M 19.96 53.412 C 15.193 50.789 13.753 49.83 11.431 47.568 C 10.312 46.478 5.74 39.764 5.279 38.392 C 2.86 31.187 2.532 30.628 1.025 23.898 C -0.393 17.556 -0.141 9.654 6.282 5.172 C 7.753 4.146 8.203 3.529 9.345 2.749 C 10.487 1.969 12.377 1.355 13.767 1.037 C 15.386 0.667 19.791 0.406 26.212 1.946 C 27.643 2.289 29.501 2.99 31.135 4.374 C 31.99 5.098 33.542 5.903 34.342 6.726 C 35.072 7.476 35.389 8.252 35.941 9.018 C 37.654 11.397 37.971 14.073 38.316 15.251 C 38.452 15.716 39.333 18.88 39.274 21.478 C 39.131 27.83 37.6 24.297 37.11 24.044 C 34.621 22.76 30.254 12.613 30.748 14.951 C 30.748 14.951 30.42 14.509 28.657 12.727 C 28.657 12.727 26.274 10.969 25.137 10.558 C 23.673 10.029 22.592 9.822 21.984 9.558 C 21.217 9.227 20.815 9.419 19.923 9.447 C 18.7 9.485 17.593 9.537 16.577 9.962 C 15.634 10.356 13.63 11.179 13.1 11.886 C 13.1 11.886 7.744 15.58 9.761 24.807 C 10.677 28.987 16.909 31.515 19.204 31.437 C 21.626 31.355 23.535 31.118 25.459 30.213 C 27.103 29.439 28.811 28.213 30.286 25.795 C 31.014 24.602 31.008 23.171 31.176 21.236 C 31.276 20.085 31.136 17.99 30.615 16.624 C 29.508 13.72 26.211 9.599 26.742 9.863 C 28.246 10.611 37.582 22.747 38.543 25.008 C 39.211 23.126 38.989 24.682 38.623 26.846 C 38.506 27.536 38.217 28.288 38.143 29.01 C 37.902 31.354 35.364 34.654 33.322 37.866 C 30.031 43.043 25.398 48.813 19.96 53.412 Z"/>
</svg>